<svg width="23" height="23" viewBox="0 0 23 23" fill="none" xmlns="http://www.w3.org/2000/svg">
<path d="M11.4999 1.91666C9.64124 1.92019 7.82367 2.46416 6.26862 3.48232C4.71358 4.50048 3.48818 5.94888 2.74168 7.6511C1.99518 9.35332 1.75981 11.2359 2.06422 13.0695C2.36864 14.9031 3.1997 16.6086 4.4562 17.9783C5.3536 18.9511 6.44276 19.7274 7.65505 20.2584C8.86734 20.7894 10.1765 21.0635 11.4999 21.0635C12.8234 21.0635 14.1326 20.7894 15.3448 20.2584C16.5571 19.7274 17.6463 18.9511 18.5437 17.9783C19.8002 16.6086 20.6313 14.9031 20.9357 13.0695C21.2401 11.2359 21.0047 9.35332 20.2582 7.6511C19.5117 5.94888 18.2863 4.50048 16.7313 3.48232C15.1762 2.46416 13.3587 1.92019 11.4999 1.91666ZM11.4999 19.1667C9.51472 19.1636 7.60807 18.3907 6.1812 17.0104C6.6144 15.9558 7.35135 15.0538 8.2984 14.419C9.24544 13.7842 10.3598 13.4452 11.4999 13.4452C12.6401 13.4452 13.7544 13.7842 14.7015 14.419C15.6485 15.0538 16.3855 15.9558 16.8187 17.0104C15.3918 18.3907 13.4852 19.1636 11.4999 19.1667ZM9.58328 9.58332C9.58328 9.20424 9.69569 8.83367 9.90629 8.51848C10.1169 8.20329 10.4162 7.95762 10.7665 7.81255C11.1167 7.66749 11.5021 7.62953 11.8739 7.70348C12.2457 7.77744 12.5872 7.95998 12.8552 8.22804C13.1233 8.49609 13.3058 8.8376 13.3798 9.2094C13.4537 9.5812 13.4158 9.96657 13.2707 10.3168C13.1256 10.667 12.88 10.9664 12.5648 11.177C12.2496 11.3876 11.879 11.5 11.4999 11.5C10.9916 11.5 10.5041 11.2981 10.1447 10.9386C9.78521 10.5792 9.58328 10.0917 9.58328 9.58332ZM18.122 15.3333C17.2658 13.8688 15.948 12.7296 14.3749 12.0942C14.8629 11.5409 15.1808 10.8585 15.2906 10.129C15.4004 9.39953 15.2973 8.65385 14.9938 7.98147C14.6903 7.30908 14.1992 6.73857 13.5794 6.33837C12.9597 5.93818 12.2377 5.72531 11.4999 5.72531C10.7622 5.72531 10.0402 5.93818 9.42045 6.33837C8.80072 6.73857 8.30962 7.30908 8.0061 7.98147C7.70258 8.65385 7.59952 9.39953 7.70929 10.129C7.81906 10.8585 8.13699 11.5409 8.62495 12.0942C7.05194 12.7296 5.7341 13.8688 4.87786 15.3333C4.19547 14.171 3.83493 12.8479 3.83328 11.5C3.83328 9.46666 4.64101 7.51662 6.07879 6.07884C7.51657 4.64106 9.46662 3.83332 11.4999 3.83332C13.5333 3.83332 15.4833 4.64106 16.9211 6.07884C18.3589 7.51662 19.1666 9.46666 19.1666 11.5C19.165 12.8479 18.8044 14.171 18.122 15.3333Z" fill="white"/>
</svg>
